<svg viewBox="0 0 14 14" xmlns="http://www.w3.org/2000/svg" xmlns:xlink="http://www.w3.org/1999/xlink" width="14.000000" height="14.000000" fill="none" customFrame="#000000">
	<g id="vuesax/bold/add-circle">
		<g id="add-circle">
			<path id="Vector" d="M6.99984 1.16669C3.78567 1.16669 1.1665 3.78585 1.1665 7.00002C1.1665 10.2142 3.78567 12.8334 6.99984 12.8334C10.214 12.8334 12.8332 10.2142 12.8332 7.00002C12.8332 3.78585 10.214 1.16669 6.99984 1.16669ZM9.33317 7.43752L7.43734 7.43752L7.43734 9.33335C7.43734 9.57252 7.239 9.77085 6.99984 9.77085C6.76067 9.77085 6.56234 9.57252 6.56234 9.33335L6.56234 7.43752L4.6665 7.43752C4.42734 7.43752 4.229 7.23919 4.229 7.00002C4.229 6.76085 4.42734 6.56252 4.6665 6.56252L6.56234 6.56252L6.56234 4.66669C6.56234 4.42752 6.76067 4.22919 6.99984 4.22919C7.239 4.22919 7.43734 4.42752 7.43734 4.66669L7.43734 6.56252L9.33317 6.56252C9.57234 6.56252 9.77067 6.76085 9.77067 7.00002C9.77067 7.23919 9.57234 7.43752 9.33317 7.43752Z" fill="rgb(0,0,0)" fill-rule="nonzero" />
			<path id="Vector" opacity="0" transform="matrix(-1,-1.22465e-16,1.22465e-16,-1,14,14)" />
		</g>
	</g>
</svg>
