<svg viewBox="0 0 14 14" xmlns="http://www.w3.org/2000/svg" xmlns:xlink="http://www.w3.org/1999/xlink" width="14.000000" height="14.000000" fill="none" customFrame="#000000">
	<g id="vuesax/bold/arrow-left">
		<g id="arrow-left">
			<path id="Vector" d="M9.44419 1.16669L4.55585 1.16669C2.43252 1.16669 1.16669 2.43252 1.16669 4.55585L1.16669 9.43835C1.16669 11.5675 2.43252 12.8334 4.55585 12.8334L9.43835 12.8334C11.5617 12.8334 12.8275 11.5675 12.8275 9.44419L12.8275 4.55585C12.8334 2.43252 11.5675 1.16669 9.44419 1.16669ZM10.5 7.43752L4.55585 7.43752L6.31169 9.19335C6.48085 9.36252 6.48085 9.64252 6.31169 9.81169C6.22419 9.89919 6.11335 9.94002 6.00252 9.94002C5.89169 9.94002 5.78085 9.89919 5.69335 9.81169L3.19085 7.30919C3.10919 7.22752 3.06252 7.11669 3.06252 7.00002C3.06252 6.88335 3.10919 6.77252 3.19085 6.69085L5.69335 4.18835C5.86252 4.01919 6.14252 4.01919 6.31169 4.18835C6.48085 4.35752 6.48085 4.63752 6.31169 4.80669L4.55585 6.56252L10.5 6.56252C10.7392 6.56252 10.9375 6.76085 10.9375 7.00002C10.9375 7.23919 10.7392 7.43752 10.5 7.43752Z" fill="rgb(153,153,153)" fill-rule="nonzero" />
			<path id="Vector" opacity="0" transform="matrix(-1,-1.22465e-16,1.22465e-16,-1,14,14)" />
		</g>
	</g>
</svg>
