<svg width="12" height="12" viewBox="0 0 12 12" fill="none" xmlns="http://www.w3.org/2000/svg">
<path d="M8.44425 0.166687H3.55591C1.43258 0.166687 0.166748 1.43252 0.166748 3.55585V8.43835C0.166748 10.5675 1.43258 11.8334 3.55591 11.8334H8.43841C10.5617 11.8334 11.8276 10.5675 11.8276 8.44419V3.55585C11.8334 1.43252 10.5676 0.166687 8.44425 0.166687ZM9.50008 6.43752H3.55591L5.31175 8.19335C5.48091 8.36252 5.48091 8.64252 5.31175 8.81169C5.22425 8.89919 5.11341 8.94002 5.00258 8.94002C4.89175 8.94002 4.78091 8.89919 4.69341 8.81169L2.19091 6.30919C2.10925 6.22752 2.06258 6.11669 2.06258 6.00002C2.06258 5.88335 2.10925 5.77252 2.19091 5.69085L4.69341 3.18835C4.86258 3.01919 5.14258 3.01919 5.31175 3.18835C5.48091 3.35752 5.48091 3.63752 5.31175 3.80669L3.55591 5.56252H9.50008C9.73925 5.56252 9.93758 5.76085 9.93758 6.00002C9.93758 6.23919 9.73925 6.43752 9.50008 6.43752Z" fill="#999999"/>
</svg>
